<?xml version="1.0" encoding="utf-8"?>
<!-- Generator: Adobe Illustrator 19.1.0, SVG Export Plug-In . SVG Version: 6.00 Build 0)  -->
<!DOCTYPE svg PUBLIC "-//W3C//DTD SVG 1.1//EN" "http://www.w3.org/Graphics/SVG/1.1/DTD/svg11.dtd">
<svg version="1.1" id="Layer_1" xmlns="http://www.w3.org/2000/svg" xmlns:xlink="http://www.w3.org/1999/xlink" x="0px" y="0px"
	 viewBox="0 0 128 128" style="enable-background:new 0 0 128 128;" xml:space="preserve">
<style type="text/css">
	.st0{opacity:0.6;fill:#D1D1D1;}
	.st1{fill:url(#SVGID_1_);}
	.st2{fill:#FFFFFF;}
</style>
<path class="st0" d="M120.7,128.1H11.6c-4,0-7.3-3.2-7.3-7.3V11.6c0-4,3.2-7.3,7.3-7.3h109.2c4,0,7.3,3.2,7.3,7.3v109.2
	C128,124.8,124.8,128.1,120.7,128.1z"/>
<linearGradient id="SVGID_1_" gradientUnits="userSpaceOnUse" x1="61.8476" y1="123.6951" x2="61.8476" y2="5.257880e-008">
	<stop  offset="0" style="stop-color:#0B2E49"/>
	<stop  offset="0" style="stop-color:#13374D"/>
	<stop  offset="0" style="stop-color:#2A5156"/>
	<stop  offset="0" style="stop-color:#4E7A66"/>
	<stop  offset="0" style="stop-color:#81B37B"/>
	<stop  offset="0" style="stop-color:#A3DA8A"/>
	<stop  offset="0.1073" style="stop-color:#99D287"/>
	<stop  offset="0.4476" style="stop-color:#7FBD7E"/>
	<stop  offset="0.7538" style="stop-color:#70B079"/>
	<stop  offset="0.9944" style="stop-color:#6AAC77"/>
</linearGradient>
<path class="st1" d="M117.6,123.7H6.1c-3.4,0-6.1-2.7-6.1-6.1V6.1C0,2.7,2.7,0,6.1,0h111.5c3.4,0,6.1,2.7,6.1,6.1v111.5
	C123.7,121,121,123.7,117.6,123.7z"/>
<g>
	<polygon class="st2" points="57.6,93.1 57.6,91.6 26.7,91.6 26.7,30.3 56.1,30.3 56.1,93.1 57.6,93.1 57.6,91.6 57.6,93.1 
		59.1,93.1 59.1,27.3 23.7,27.3 23.7,94.6 59.1,94.6 59.1,93.1 	"/>
	<polygon class="st2" points="100,62.7 100,61.2 69.1,61.2 69.1,30.3 98.5,30.3 98.5,62.7 100,62.7 100,61.2 100,62.7 101.5,62.7 
		101.5,27.3 66.1,27.3 66.1,64.2 101.5,64.2 101.5,62.7 	"/>
	<polygon class="st2" points="100,93 100,91.5 69.1,91.5 69.1,75.4 98.5,75.4 98.5,93 100,93 100,91.5 100,93 101.5,93 101.5,72.4 
		66.1,72.4 66.1,94.5 101.5,94.5 101.5,93 	"/>
</g>
</svg>
