<?xml version="1.0" encoding="utf-8"?>
<!-- Generator: Adobe Illustrator 19.1.0, SVG Export Plug-In . SVG Version: 6.00 Build 0)  -->
<!DOCTYPE svg PUBLIC "-//W3C//DTD SVG 1.1//EN" "http://www.w3.org/Graphics/SVG/1.1/DTD/svg11.dtd">
<svg version="1.1" id="Layer_1" xmlns="http://www.w3.org/2000/svg" xmlns:xlink="http://www.w3.org/1999/xlink" x="0px" y="0px"
	 viewBox="0 0 150 150" style="enable-background:new 0 0 150 150;" xml:space="preserve">
<style type="text/css">
	.st0{fill:url(#SVGID_1_);}
	.st1{fill:#FFFFFF;}
</style>
<linearGradient id="SVGID_1_" gradientUnits="userSpaceOnUse" x1="75" y1="150" x2="75" y2="-3.366949e-009">
	<stop  offset="0" style="stop-color:#0B2E49"/>
	<stop  offset="0" style="stop-color:#13374D"/>
	<stop  offset="0" style="stop-color:#2A5156"/>
	<stop  offset="0" style="stop-color:#4E7A66"/>
	<stop  offset="0" style="stop-color:#81B37B"/>
	<stop  offset="0" style="stop-color:#A3DA8A"/>
	<stop  offset="0.1073" style="stop-color:#99D287"/>
	<stop  offset="0.4476" style="stop-color:#7FBD7E"/>
	<stop  offset="0.7538" style="stop-color:#70B079"/>
	<stop  offset="0.9944" style="stop-color:#6AAC77"/>
</linearGradient>
<rect y="0" class="st0" width="150" height="150"/>
<g>
	<polygon class="st1" points="69.8,112.9 69.8,111.1 32.3,111.1 32.3,36.7 68,36.7 68,112.9 69.8,112.9 69.8,111.1 69.8,112.9 
		71.6,112.9 71.6,33.1 28.7,33.1 28.7,114.7 71.6,114.7 71.6,112.9 	"/>
	<polygon class="st1" points="121.2,76 121.2,74.2 83.8,74.2 83.8,36.7 119.4,36.7 119.4,76 121.2,76 121.2,74.2 121.2,76 123,76 
		123,33.1 80.1,33.1 80.1,77.8 123,77.8 123,76 	"/>
	<polygon class="st1" points="121.2,112.8 121.2,111 83.8,111 83.8,91.4 119.4,91.4 119.4,112.8 121.2,112.8 121.2,111 121.2,112.8 
		123,112.8 123,87.7 80.1,87.7 80.1,114.7 123,114.7 123,112.8 	"/>
</g>
</svg>
